<svg width="53" height="60" viewBox="0 0 53 60" fill="none" xmlns="http://www.w3.org/2000/svg">
<path d="M48 7L44.0826 51.0949L26.4737 56L8.91326 51.1018L5 7H48Z" fill="#264DE4"/>
<path d="M40.7293 48.2871L44.077 10.606H26.5005V52.2507L40.7293 48.2871Z" fill="#2965F1"/>
<path d="M13.9712 26.9627L14.4537 32.3715H26.5001V26.9627H13.9712Z" fill="#EBEBEB"/>
<path d="M26.4999 16.0149H26.4812H13.0015L13.4908 21.4239H26.4999V16.0149Z" fill="#EBEBEB"/>
<path d="M26.5003 46.6377V41.0102L26.4767 41.0165L20.4814 39.3899L20.0982 35.0761H17.1849H14.6943L15.4485 43.5688L26.4755 46.6446L26.5003 46.6377Z" fill="#EBEBEB"/>
<path d="M33.1102 32.3715L32.4854 39.3865L26.4814 41.0147V46.642L37.5172 43.5688L37.5982 42.655L38.8631 28.4151L38.9945 26.9627L39.9663 16.0149H26.4814V21.4239H34.0668L33.577 26.9627H26.4814V32.3715H33.1102Z" fill="white"/>
</svg>
