<svg width="53" height="60" viewBox="0 0 53 60" fill="none" xmlns="http://www.w3.org/2000/svg">
<path d="M3 7H50V54H3V7ZM46.1499 42.7905C45.8072 40.6461 44.4109 38.8445 40.269 37.1642C38.8277 36.4886 37.2258 36.0186 36.7499 34.9317C36.5717 34.2855 36.5443 33.933 36.6598 33.5511C36.9536 32.286 38.4517 31.9061 39.6267 32.2586C40.3905 32.4936 41.0955 33.0811 41.538 34.0211C43.563 32.6973 43.563 32.6973 44.9749 31.818C44.4462 30.9955 44.1837 30.641 43.8273 30.2905C42.5936 28.9098 40.9505 28.2048 38.2774 28.2655L36.8968 28.4398C35.573 28.763 34.3118 29.468 33.548 30.408C31.3155 32.9362 31.9598 37.3424 34.6623 39.1637C37.3355 41.1612 41.2443 41.5998 41.7437 43.4818C42.2137 45.773 40.0399 46.5074 37.8936 46.243C36.3054 45.8905 35.4261 45.0955 34.4567 43.6267L30.873 45.6849C31.2842 46.6249 31.7542 47.0342 32.4592 47.8567C35.8667 51.2955 44.3855 51.1193 45.9149 45.8905C45.9717 45.7143 46.3849 44.5099 46.0598 42.6593L46.1499 42.7905ZM28.5582 28.6024H24.1559C24.1559 32.3976 24.1382 36.1694 24.1382 39.9705C24.1382 42.3832 24.2616 44.598 23.868 45.2795C23.2217 46.6288 21.5572 46.4565 20.8012 46.2195C20.0257 45.8357 19.6321 45.307 19.1758 44.5452C19.0525 44.3395 18.9604 44.1613 18.9271 44.1613L15.3532 46.3645C15.9505 47.5982 16.8219 48.6596 17.946 49.3353C19.6204 50.334 21.8705 50.6571 24.2264 50.1284C25.7597 49.6858 27.0816 48.7752 27.7729 47.3652C28.7717 45.5439 28.5602 43.3114 28.5504 40.8126C28.5739 36.7902 28.5504 32.7658 28.5504 28.712L28.5582 28.6024Z" fill="#F7DF1E"/>
</svg>
