<svg width="53" height="60" viewBox="0 0 53 60" fill="none" xmlns="http://www.w3.org/2000/svg">
<path d="M5 7H48.0964L44.1767 51.0245L26.501 56L8.92588 51.0224L5 7Z" fill="#E34F26"/>
<path d="M26.5674 51.5612V10.5945H44.5401L41.2708 47.4113L26.5674 51.5612Z" fill="#EC613B"/>
<path d="M18.8329 20.9801L19.309 26.5294V26.5314H38.9938L37.467 43.1853L26.4282 46.1314L15.3011 43.171L14.6238 34.6552H19.9781L20.3639 38.9631L26.4282 40.6169L32.4001 38.9754L33.0691 31.9806H14.3406L12.9082 15.6269L39.9481 15.633L39.4761 20.9863L18.8329 20.9801Z" fill="white"/>
<path d="M26.5675 20.9824L18.8329 20.9801L19.309 26.5294V26.5314H26.5675V31.9806H14.3407L12.9082 15.6269L26.5675 15.63V20.9824Z" fill="#EBEBEB"/>
<path d="M26.5675 40.5786V46.0943L26.4281 46.1314L15.3011 43.171L14.6239 34.6552H19.9781L20.3639 38.9631L26.4281 40.6169L26.5675 40.5786Z" fill="#EBEBEB"/>
</svg>
