<svg xmlns="http://www.w3.org/2000/svg" width="34" height="19" viewBox="0 0 34 19"><path fill-rule="evenodd" d="M31.558 1.287C31.781.545 31.558 0 30.5 0H27c-.89 0-1.3.47-1.523.99 0 0-1.78 4.338-4.301 7.156-.816.816-1.187 1.076-1.631 1.076-.223 0-.557-.26-.557-1.002V1.287C18.988.397 18.742 0 18 0h-5.5c-.556 0-.89.413-.89.804 0 .844 1.26 1.039 1.39 3.412V9.37c0 1.13-.204 1.335-.649 1.335-1.187 0-4.073-4.358-5.784-9.344C6.23.39 5.895 0 5 0H1.5C.5 0 .3.47.3.99c0 .927 1.187 5.525 5.525 11.606C8.717 16.749 12.792 19 16.5 19c2.225 0 2.5-.5 2.5-1.361V14.5c0-1 .21-1.2.915-1.2.52 0 1.41.26 3.486 2.262C25.774 17.935 26.165 19 27.5 19H31c1 0 1.5-.5 1.21-1.487-.315-.983-1.448-2.41-2.951-4.101-.816-.964-2.04-2.003-2.41-2.522-.52-.667-.371-.964 0-1.557 0 0 4.264-6.007 4.708-8.046z"/></svg>
