<svg xmlns="http://www.w3.org/2000/svg" xmlns:xlink="http://www.w3.org/1999/xlink"><symbol id="css" viewBox="0 0 53 60">
<path d="M48 7L44.0826 51.0949L26.4737 56L8.91326 51.1018L5 7H48Z" fill="#264DE4"/>
<path d="M40.7293 48.2871L44.077 10.606H26.5005V52.2507L40.7293 48.2871Z" fill="#2965F1"/>
<path d="M13.9712 26.9627L14.4537 32.3715H26.5001V26.9627H13.9712Z" fill="#EBEBEB"/>
<path d="M26.4999 16.0149H26.4812H13.0015L13.4908 21.4239H26.4999V16.0149Z" fill="#EBEBEB"/>
<path d="M26.5003 46.6377V41.0102L26.4767 41.0165L20.4814 39.3899L20.0982 35.0761H17.1849H14.6943L15.4485 43.5688L26.4755 46.6446L26.5003 46.6377Z" fill="#EBEBEB"/>
<path d="M33.1102 32.3715L32.4854 39.3865L26.4814 41.0147V46.642L37.5172 43.5688L37.5982 42.655L38.8631 28.4151L38.9945 26.9627L39.9663 16.0149H26.4814V21.4239H34.0668L33.577 26.9627H26.4814V32.3715H33.1102Z" fill="white"/>
</symbol><symbol id="github-logo" viewBox="0 0 16 16"><path fill-rule="evenodd" d="M8 0C3.58 0 0 3.58 0 8c0 3.54 2.29 6.53 5.47 7.59.4.07.55-.17.55-.38 0-.19-.01-.82-.01-1.49-2.01.37-2.53-.49-2.69-.94-.09-.23-.48-.94-.82-1.13-.28-.15-.68-.52-.01-.53.63-.01 1.08.58 1.23.82.72 1.21 1.87.87 2.33.66.07-.52.28-.87.51-1.07-1.78-.2-3.64-.89-3.64-3.95 0-.87.31-1.59.82-2.15-.08-.2-.36-1.02.08-2.12 0 0 .67-.21 2.2.82.64-.18 1.32-.27 2-.27.68 0 1.36.09 2 .27 1.53-1.04 2.2-.82 2.2-.82.44 1.1.16 1.92.08 2.12.51.56.82 1.27.82 2.15 0 3.07-1.87 3.75-3.65 3.95.29.25.54.73.54 1.48 0 1.07-.01 1.93-.01 2.2 0 .21.15.46.55.38A8.013 8.013 0 0 0 16 8c0-4.42-3.58-8-8-8z"/></symbol><symbol id="html-academy-logo" viewBox="0 0 26.943 34.09"><path d="M13.62.017L13.472 0 0 1.412v24.661l13.473 8.017 13.43-7.99.042-.025V1.412L13.62.017zm11.399 12.11L13.495 5.334l-.001-.104-.087.05-.088-.056v.109L1.925 12.118V3.147l11.548-1.212L25.02 3.147v8.98zm-11.614-5.34L24.923 13.5l-4.479 2.64-7.093-4.221-.014 1.415 5.904 3.513-.86.507-5.03-2.992-.014 1.415 3.827 2.275-.782.523-3.031-1.787-.014 1.413 1.853 1.091-1.8 1.081-11.356-6.751 11.371-6.835zm-11.48 8.34l11.411 6.791.016 1.044-7.942-4.728-.015 1.416 7.979 4.795.018 1.076-7.973-4.74-.013 1.414 8.021 4.822.046.025 8.143-4.872-.011-5.177 3.415-2.036v10.021L13.472 31.85 1.925 24.979v-9.852z"/></symbol><symbol id="html" viewBox="0 0 53 60">
<path d="M5 7H48.0964L44.1767 51.0245L26.501 56L8.92588 51.0224L5 7Z" fill="#E34F26"/>
<path d="M26.5674 51.5612V10.5945H44.5401L41.2708 47.4113L26.5674 51.5612Z" fill="#EC613B"/>
<path d="M18.8329 20.9801L19.309 26.5294V26.5314H38.9938L37.467 43.1853L26.4282 46.1314L15.3011 43.171L14.6238 34.6552H19.9781L20.3639 38.9631L26.4282 40.6169L32.4001 38.9754L33.0691 31.9806H14.3406L12.9082 15.6269L39.9481 15.633L39.4761 20.9863L18.8329 20.9801Z" fill="white"/>
<path d="M26.5675 20.9824L18.8329 20.9801L19.309 26.5294V26.5314H26.5675V31.9806H14.3407L12.9082 15.6269L26.5675 15.63V20.9824Z" fill="#EBEBEB"/>
<path d="M26.5675 40.5786V46.0943L26.4281 46.1314L15.3011 43.171L14.6239 34.6552H19.9781L20.3639 38.9631L26.4281 40.6169L26.5675 40.5786Z" fill="#EBEBEB"/>
</symbol><symbol id="icon-arrow-right" viewBox="0 0 8 16"><path fill-rule="evenodd" d="M7.5 8l-5 5L1 11.5 4.75 8 1 4.5 2.5 3z"/></symbol><symbol id="js" viewBox="0 0 53 60">
<path d="M3 7H50V54H3V7ZM46.1499 42.7905C45.8072 40.6461 44.4109 38.8445 40.269 37.1642C38.8277 36.4886 37.2258 36.0186 36.7499 34.9317C36.5717 34.2855 36.5443 33.933 36.6598 33.5511C36.9536 32.286 38.4517 31.9061 39.6267 32.2586C40.3905 32.4936 41.0955 33.0811 41.538 34.0211C43.563 32.6973 43.563 32.6973 44.9749 31.818C44.4462 30.9955 44.1837 30.641 43.8273 30.2905C42.5936 28.9098 40.9505 28.2048 38.2774 28.2655L36.8968 28.4398C35.573 28.763 34.3118 29.468 33.548 30.408C31.3155 32.9362 31.9598 37.3424 34.6623 39.1637C37.3355 41.1612 41.2443 41.5998 41.7437 43.4818C42.2137 45.773 40.0399 46.5074 37.8936 46.243C36.3054 45.8905 35.4261 45.0955 34.4567 43.6267L30.873 45.6849C31.2842 46.6249 31.7542 47.0342 32.4592 47.8567C35.8667 51.2955 44.3855 51.1193 45.9149 45.8905C45.9717 45.7143 46.3849 44.5099 46.0598 42.6593L46.1499 42.7905ZM28.5582 28.6024H24.1559C24.1559 32.3976 24.1382 36.1694 24.1382 39.9705C24.1382 42.3832 24.2616 44.598 23.868 45.2795C23.2217 46.6288 21.5572 46.4565 20.8012 46.2195C20.0257 45.8357 19.6321 45.307 19.1758 44.5452C19.0525 44.3395 18.9604 44.1613 18.9271 44.1613L15.3532 46.3645C15.9505 47.5982 16.8219 48.6596 17.946 49.3353C19.6204 50.334 21.8705 50.6571 24.2264 50.1284C25.7597 49.6858 27.0816 48.7752 27.7729 47.3652C28.7717 45.5439 28.5602 43.3114 28.5504 40.8126C28.5739 36.7902 28.5504 32.7658 28.5504 28.712L28.5582 28.6024Z" fill="#F7DF1E"/>
</symbol><symbol id="vk-logo" viewBox="0 0 34 19"><path fill-rule="evenodd" d="M31.558 1.287C31.781.545 31.558 0 30.5 0H27c-.89 0-1.3.47-1.523.99 0 0-1.78 4.338-4.301 7.156-.816.816-1.187 1.076-1.631 1.076-.223 0-.557-.26-.557-1.002V1.287C18.988.397 18.742 0 18 0h-5.5c-.556 0-.89.413-.89.804 0 .844 1.26 1.039 1.39 3.412V9.37c0 1.13-.204 1.335-.649 1.335-1.187 0-4.073-4.358-5.784-9.344C6.23.39 5.895 0 5 0H1.5C.5 0 .3.47.3.99c0 .927 1.187 5.525 5.525 11.606C8.717 16.749 12.792 19 16.5 19c2.225 0 2.5-.5 2.5-1.361V14.5c0-1 .21-1.2.915-1.2.52 0 1.41.26 3.486 2.262C25.774 17.935 26.165 19 27.5 19H31c1 0 1.5-.5 1.21-1.487-.315-.983-1.448-2.41-2.951-4.101-.816-.964-2.04-2.003-2.41-2.522-.52-.667-.371-.964 0-1.557 0 0 4.264-6.007 4.708-8.046z"/></symbol></svg>